<svg id="Capa_1" enable-background="new 0 0 512 512" height="512" viewBox="0 0 512 512" width="512" xmlns="http://www.w3.org/2000/svg"><g><path d="m436 20h-91.72c-4.128-11.639-15.244-20-28.28-20h-120c-13.036 0-24.152 8.361-28.28 20h-91.72c-16.542 0-30 13.458-30 30v200c0 16.542 13.458 30 30 30h91.72c4.128 11.639 15.243 20 28.28 20h30v202c0 5.523 4.478 10 10 10h40c5.522 0 10-4.477 10-10v-70h10c5.522 0 10-4.477 10-10s-4.478-10-10-10h-10v-112h30c13.036 0 24.152-8.361 28.28-20h91.72c16.542 0 30-13.458 30-30v-200c0-16.542-13.458-30-30-30zm-50 240h-40v-10c0-5.523-4.478-10-10-10h-160c-5.522 0-10 4.477-10 10v10h-40v-220h40v10c0 5.523 4.478 10 10 10h160c5.522 0 10-4.477 10-10v-10h40zm-190-240h120c5.514 0 10 4.486 10 10v10h-140v-10c0-5.514 4.486-10 10-10zm-130 230v-200c0-5.514 4.486-10 10-10h30v220h-30c-5.514 0-10-4.486-10-10zm200 242h-20v-192h20zm50-212h-120c-5.514 0-10-4.486-10-10v-10h140v10c0 5.514-4.486 10-10 10zm130-30c0 5.514-4.486 10-10 10h-30v-100h10c5.522 0 10-4.477 10-10s-4.478-10-10-10h-10v-100h30c5.514 0 10 4.486 10 10z"/><circle cx="256" cy="110" r="30"/><path d="m256 140c-27.57 0-50 22.43-50 50 0 5.523 4.478 10 10 10h80c5.522 0 10-4.477 10-10 0-27.57-22.43-50-50-50z"/></g></svg>