<svg height="512" viewBox="0 0 58 58" width="512" xmlns="http://www.w3.org/2000/svg"><g id="068---Vlogging" fill="none"><path id="Shape" d="m42 37v1.356c.0283121 1.3184108-.9348742 2.4492199-2.241 2.631-.7043834.0733689-1.4068349-.1554504-1.9328616-.629618-.5260266-.4741676-.8262666-1.1491879-.8261384-1.857382v-4c-.001866-.6636115.2609269-1.300581.7301729-1.7698271.4692461-.469246 1.1062156-.7320389 1.7698271-.7301729h5.843c1.0611258-.0000387 2.0787841.4215575 2.829 1.172l3.656 3.656c.7502159.7504425 1.7678742 1.1720387 2.829 1.172h1.343c1.1045695 0 2 .8954305 2 2v12c0 1.1045695-.8954305 2-2 2-4.121 0-4.916 3-8.939 3h-16.061v-22h9" fill="#fdd7ad"/><path id="Shape" d="m41.254 38c.9642892 0 1.746.7817108 1.746 1.746-.1882594 1.7961496-1.7255931 3.1458336-3.531 3.1-2.1.068-3.469-1.117-3.469-2.921v-1.925z" fill="#cbb292"/><path id="Shape" d="m42 37v1.356c.0283121 1.3184108-.9348742 2.4492199-2.241 2.631-.7043834.0733689-1.4068349-.1554504-1.9328616-.629618-.5260266-.4741676-.8262666-1.1491879-.8261384-1.857382v-4" fill="#fdd7ad"/><path id="Shape" d="m39 44.5c-.0012827.1678482-.01802.3352216-.05.5-.2340842 1.1663079-1.2604403 2.0041496-2.45 2h-3.5l-.05-2-.08-3h3.63c1.3807119 0 2.5 1.1192881 2.5 2.5z" fill="#cbb292"/><path id="Shape" d="m39 49.5c-.0012827.1678482-.01802.3352216-.05.5-.2340842 1.1663079-1.2604403 2.0041496-2.45 2l-3.63.0000153.05-2.0000153.08-3h3.5c1.3807119 0 2.5 1.1192881 2.5 2.5z" fill="#cbb292"/><path id="Shape" d="m32.87 52h3.63c1.3807119 0 2.5 1.1192881 2.5 2.5s-1.1192881 2.5-2.5 2.5h-6.96" fill="#cbb292"/><path id="Shape" d="m29 52v-23h8.0000129l-.0000129 25.5c.0021341.6636932-.2605727 1.3008186-.729877 1.770123-.4693044.4693043-1.1064298.7320111-1.770123.729877h-3.63" fill="#7f8284"/><path id="Shape" d="m50 4v-2c-.0032948-1.10320187-.8967981-1.9967052-2-2h-4c-1.1032019.0032948-1.9967052.89679813-2 2v4h8z" fill="#2c3e50"/><path id="Shape" d="m37 39.5c-.0012827.1678482-.01802.3352216-.05.5-.2340842 1.1663079-1.2604403 2.0041496-2.45 2h-3.63l-1.33-2-2-3h6.96c1.3807119 0 2.5 1.1192881 2.5 2.5z" fill="#fdd7ad"/><path id="Shape" d="m37 44.5c-.0012827.1678482-.01802.3352216-.05.5-.2340842 1.1663079-1.2604403 2.0041496-2.45 2h-3.5l-.05-2-.08-3h3.63c1.3807119 0 2.5 1.1192881 2.5 2.5z" fill="#fdd7ad"/><path id="Shape" d="m37 49.5c-.0012827.1678482-.01802.3352216-.05.5-.2340842 1.1663079-1.2604403 2.0041496-2.45 2l-3.63.0000153.05-2.0000153.08-3h3.5c1.3807119 0 2.5 1.1192881 2.5 2.5z" fill="#fdd7ad"/><path id="Shape" d="m30.87 52h3.63c1.3807119 0 2.5 1.1192881 2.5 2.5s-1.1192881 2.5-2.5 2.5h-6.96" fill="#fdd7ad"/><g fill="#f9c795"><path id="Shape" d="m36.95 40c-.2340842 1.1663079-1.2604403 2.0041496-2.45 2h-7.13c-.5522847 0-1-.4477153-1-1s.4477153-1 1-1z"/><path id="Shape" d="m36.95 45c-.2340842 1.1663079-1.2604403 2.0041496-2.45 2h-6.75c-.5522847 0-1-.4477153-1-1s.4477153-1 1-1z"/><path id="Shape" d="m36.95 40c-.2340842 1.1663079-1.2604403 2.0041496-2.45 2h-7.13c-.5522847 0-1-.4477153-1-1s.4477153-1 1-1z"/><path id="Shape" d="m36.95 45c-.2340842 1.1663079-1.2604403 2.0041496-2.45 2h-6.75c-.5522847 0-1-.4477153-1-1s.4477153-1 1-1z"/><path id="Shape" d="m36.95 50c-.2340842 1.1663079-1.2604403 2.0041496-2.45 2h-7.13c-.5522847 0-1-.4477153-1-1s.4477153-1 1-1z"/><path id="Shape" d="m36.95 50c-.2340842 1.1663079-1.2604403 2.0041496-2.45 2h-7.13c-.5522847 0-1-.4477153-1-1s.4477153-1 1-1z"/><path id="Shape" d="m36.95 55c-.2340842 1.1663079-1.2604403 2.0041496-2.45 2h-7.13c-.5522847 0-1-.4477153-1-1s.4477153-1 1-1z"/><path id="Shape" d="m36.95 40c-.2340842 1.1663079-1.2604403 2.0041496-2.45 2h-7.13c-.5522847 0-1-.4477153-1-1s.4477153-1 1-1z"/></g><path id="Shape" d="m26 23h14v5c0 1.6568542-1.3431458 3-3 3h-8c-1.6568542 0-3-1.3431458-3-3z" fill="#393f4a"/><path id="Shape" d="m45.27 25h-28.27c-1.1032019-.0032948-1.9967052-.8967981-2-2v-16c.0032948-1.10320187.8967981-1.9967052 2-2h28.27z" fill="#3f5c6c"/><circle id="Oval" cx="30" cy="15" fill="#547580" r="11"/><circle id="Oval" cx="30" cy="15" fill="#67b9cc" r="7"/><path id="Shape" d="m27 15c-.5522847 0-1-.4477153-1-1-.0234737-.8026156.2850527-1.5793921.8528303-2.1471697s1.3445541-.876304 2.1471697-.8528303c.5522847-.0027614 1.0022386.4427153 1.005.995s-.4427153 1.0022386-.995 1.005c-.2739117-.0288437-.5463007.0668224-.742023.2606068-.1957222.1937844-.2940938.4652081-.267977.7393932 0 .5522847-.4477153 1-1 1z" fill="#9fc9d3"/><rect id="Rectangle-path" fill="#35495e" height="22" rx="2" width="8" x="45" y="4"/><path id="Shape" d="m49 10c-.5522847 0-1-.44771525-1-1v-1c0-.55228475.4477153-1 1-1s1 .44771525 1 1v1c0 .55228475-.4477153 1-1 1z" fill="#3f5c6c"/><path id="Shape" d="m49 23c-.5522847 0-1-.4477153-1-1v-9c0-.5522847.4477153-1 1-1s1 .4477153 1 1v9c0 .5522847-.4477153 1-1 1z" fill="#3f5c6c"/><path id="Shape" d="m24.672 57.84c-6.1153333.2126667-12.23.2126667-18.344 0-3.21243329-.1674157-5.83257033-2.6335763-6.194-5.83-.17899963-3.3376017-.17899963-6.6823983 0-10.02.36103481-3.1966213 2.9813933-5.6629904 6.194-5.83 6.1153333-.2126667 12.23-.2126667 18.344 0 3.2126067.1670096 5.8329652 2.6333787 6.194 5.83.1789996 3.3376017.1789996 6.6823983 0 10.02-.3614297 3.1964237-2.9815667 5.6625843-6.194 5.83z" fill="#e64c3c"/><path id="Shape" d="m12 43.834v7.324c-.0001826.1799667.0963646.346147.2527975.4351234s.3486137.0870197.5032025-.0051234l6.483-3.865c.1551906-.0921951.2486389-.2608808.244495-.4413437-.0041438-.180463-.1052363-.3446816-.264495-.4296563l-6.484-3.46c-.1550765-.0825749-.3421135-.0776989-.4926769.0128439-.1505633.0905429-.2425575.2534653-.2423231.4291561z" fill="#fff"/><path id="Shape" d="m4 44c-.55228475 0-1-.4477153-1-1-.03129825-1.0701541.3800703-2.1058561 1.13710709-2.8628929.75703678-.7570368 1.79273881-1.1684054 2.86289291-1.1371071.55228475-.0016569 1.00134315.4447153 1.003.997s-.44471525 1.0013431-.997 1.003c-.54117233-.035899-1.07158528.1630423-1.45566689.5459751s-.58461087.9127475-.55033311 1.4540249c0 .5522847-.44771525 1-1 1z" fill="#fb7b76"/><path id="Shape" d="m24 55c-.3572656.0010718-.6879644-.1885367-.8675254-.4974019s-.1807046-.690063-.003-1 .5072598-.5015263.8645254-.5025981c.5411723.035899 1.0715853-.1630423 1.4556669-.5459751s.5846109-.9127475.5503331-1.4540249c0-.5522847.4477153-1 1-1s1 .4477153 1 1c.0312983 1.0701541-.3800703 2.1058561-1.1371071 2.8628929s-1.7927388 1.1684054-2.8628929 1.1371071z" fill="#fb7b76"/></g></svg>